<svg viewBox="144 144 512 512" fill="currentColor" xmlns="http://www.w3.org/2000/svg">
 <g>
  <path d="m400 612.78c-40.602 0-78.711-6.3086-107.32-17.75-27.207-10.883-42.812-25.555-42.812-40.246 0-1.8984-1.543-3.4453-3.4453-3.4453-1.8984 0-3.4453 1.543-3.4453 3.4453 0 17.91 16.746 34.48 47.145 46.633 29.402 11.758 68.426 18.242 109.88 18.242 41.445 0 80.473-6.4766 109.88-18.242 30.406-12.164 47.145-28.723 47.145-46.633 0-1.8984-1.543-3.4453-3.4453-3.4453-1.8984 0-3.4453 1.543-3.4453 3.4453 0 14.691-15.605 29.352-42.812 40.246-28.609 11.441-66.727 17.75-107.32 17.75z"/>
  <path d="m516.9 494.12c-1.8203-0.54297-3.7383 0.48047-4.2891 2.3008-0.55078 1.8203 0.48047 3.7383 2.3008 4.2891 46.602 14.051 74.43 35.848 74.43 58.332 0 18.812-19.789 37.531-54.297 51.324-36.016 14.406-83.977 22.336-135.04 22.336-51.07 0-99.02-7.9297-135.04-22.336-34.508-13.805-54.297-32.512-54.297-51.324 0-22.25 27.375-43.918 73.23-57.969 1.8203-0.5625 2.8438-2.4805 2.2812-4.3008-0.5625-1.8203-2.4805-2.8438-4.3008-2.2812-49.633 15.203-78.102 38.73-78.102 64.551 0 22.102 20.82 42.598 58.625 57.723 36.812 14.719 85.676 22.828 137.59 22.828 51.914 0 100.79-8.1094 137.59-22.828 37.805-15.125 58.625-35.621 58.625-57.723 0.019531-26.062-28.898-49.719-79.309-64.922z"/>
  <path d="m257 296.42c90.676 70.73 98.105 158.3 12.715 240.65-4.2891 4.1328-4.0156 11.316 0.66797 14.977 44.469 34.844 215.02 35.238 259.32 0.019531 4.6445-3.6914 4.9102-10.824 0.62891-14.945-85.449-82.352-78.031-169.96 12.652-240.7 34.383-14.879 53.227-34.449 53.227-55.469 0-22.102-20.82-42.598-58.625-57.723-36.805-14.73-85.668-22.84-137.59-22.84s-100.79 8.1094-137.59 22.828c-37.805 15.125-58.625 35.621-58.625 57.723-0.011719 21.027 18.84 40.598 53.223 55.477zm164.72-4.6836c-7.1445 0.39453-14.453 0.58984-21.727 0.58984-11.59 0-23.074-0.5-34.234-1.4961 5.2734-4.6758 11.199-8.6406 17.652-11.711l1.2891-0.60938c0.15625-0.078125 0.29688-0.16797 0.43359-0.26562 4.7734 0.39453 9.7617 0.60156 14.859 0.60156 5.2266 0 10.344-0.21484 15.23-0.62891 0.14844 0.10938 0.30469 0.20703 0.48047 0.29688l1.2891 0.62109c14.641 6.9648 26.637 18.5 34.234 32.738-16.473 1.8203-33.672 2.7539-51.238 2.7539-17.426 0-34.488-0.92578-50.844-2.7148 2.8438-5.332 6.2891-10.281 10.273-14.762 13.137 1.3789 26.785 2.0781 40.562 2.0781 7.3984 0 14.84-0.20703 22.109-0.60156 1.8984-0.10938 3.3555-1.7305 3.2461-3.6328-0.097656-1.9102-1.6719-3.3359-3.6172-3.2578zm14.789 56.512c-1.4844 7.3906-2.7539 14.938-3.7695 22.414-0.23438 1.7305-1.7109 2.9805-3.4062 2.9805-0.15625 0-0.31641-0.011719-0.46094-0.03125-1.8906-0.25391-3.207-1.9883-2.9531-3.8789 1.0312-7.625 2.3203-15.312 3.8359-22.848 0.375-1.8711 2.1836-3.0703 4.0547-2.6953 1.8633 0.37891 3.0742 2.1875 2.6992 4.0586zm-61.512 112c-2.2539 19.699-6.1602 39.352-11.59 58.422l-4.4688 15.676c-0.43359 1.5156-1.8125 2.5-3.3047 2.5-0.31641 0-0.62891-0.039062-0.94531-0.12891-1.832-0.52344-2.8945-2.4297-2.3711-4.2617l4.4688-15.676c5.332-18.707 9.1602-37.992 11.375-57.316 0.21484-1.8906 1.9297-3.2578 3.8164-3.0312 1.8789 0.21484 3.2383 1.9258 3.0195 3.8164zm1.8398-21.914c-0.097656 1.8398-1.625 3.2578-3.4336 3.2578h-0.1875c-1.8984-0.097656-3.3555-1.7227-3.2578-3.6211 1.625-30.043-0.5625-60.223-6.4844-89.711-0.375-1.8594 0.83594-3.6797 2.6953-4.0547s3.6797 0.83594 4.0547 2.6953c6.043 30.051 8.2695 60.812 6.6133 91.434zm68.469 98.379c-0.31641 0.089844-0.62891 0.12891-0.94531 0.12891-1.4961 0-2.8828-0.98438-3.3047-2.5l-4.4688-15.676c-11.367-39.902-15.832-81.133-13.266-122.55 0.11719-1.8984 1.7305-3.3359 3.6523-3.2266 1.8984 0.11719 3.3438 1.75 3.2266 3.6523-2.5195 40.629 1.8594 81.082 13.02 120.23l4.4688 15.676c0.5 1.8281-0.55469 3.7383-2.3828 4.2578zm89.73-347.1c34.508 13.805 54.297 32.512 54.297 51.324s-19.789 37.531-54.297 51.324c-21.785 8.7188-47.941 15.055-76.508 18.707-2.6094-5.293-5.7656-10.273-9.4062-14.848 42.922-5.5703 77.352-18.383 92.742-34.637 1.3086-1.3789 1.25-3.5625-0.13672-4.8711-1.3867-1.3086-3.5625-1.25-4.8711 0.13672-14.867 15.715-49.691 28.074-93.234 33.113-4.9102-5.0469-10.469-9.4648-16.543-13.125 3.8867-0.64844 7.5273-1.4453 10.812-2.3828 11.816-3.3438 17.809-7.9883 17.809-13.785 0-1.2305-0.28516-2.4102-0.82812-3.5312l18.727-5.9531c30.984-9.8516 64.699-8.6875 94.926 3.2656 1.7695 0.69922 3.7695-0.16797 4.4688-1.9375s-0.16797-3.7695-1.9375-4.4688c-6.5234-2.5781-13.207-4.6758-19.984-6.2891 0.011719-0.23438 0.03125-0.48047 0.03125-0.71875 0-21.551-28.625-40.57-76.566-50.863-1.8516-0.40234-3.6914 0.78906-4.0938 2.6484-0.40234 1.8594 0.78906 3.6914 2.6484 4.0938 43.246 9.2891 70.316 25.852 71.086 43.363-24.07-4.5547-49.121-3.1406-72.668 4.3477l-22.07 7.0156c-2.875-1.7891-6.7227-3.3867-11.551-4.7539-5.8633-1.6641-12.82-2.8945-20.398-3.6328l4.3984-9.2188c12.91-27.07 36.449-48.316 64.66-58.422 17.699 3.6016 34.055 8.332 48.488 14.098zm-324.39 51.336c0-18.812 19.789-37.531 54.297-51.324 14.504-5.8047 30.957-10.559 48.758-14.16 8.6992 3.1016 16.895 7.1719 24.5 12.191-42.254 7.1523-73.645 21.391-84.742 38.652-1.0312 1.6055-0.57031 3.7305 1.0312 4.7617 0.58203 0.375 1.2188 0.55078 1.8594 0.55078 1.1328 0 2.2422-0.5625 2.9023-1.5859 10.48-16.297 43.73-30.309 86.867-36.652 2.6875 2.125 5.293 4.3594 7.8047 6.7422 0.66797 0.62891 1.5156 0.94531 2.3711 0.94531 0.91406 0 1.8203-0.36328 2.5-1.0742 1.3086-1.3789 1.25-3.5625-0.13672-4.8711-9.6328-9.1133-20.496-16.461-32.402-21.965 23.035-3.8477 47.988-5.8633 73.73-5.8633 25.871 0 50.941 2.0352 74.066 5.9219-7.6641 3.5703-14.918 7.9414-21.637 13-16.746-2.332-34.383-3.5234-52.418-3.5234-11.711 0-23.371 0.5-34.668 1.5039-1.8984 0.16797-3.2969 1.8398-3.1289 3.7305 0.16797 1.8906 1.832 3.3164 3.7305 3.1289 11.098-0.98438 22.555-1.4766 34.066-1.4766 15.438 0 30.562 0.88672 45.059 2.6289-12.223 10.754-22.316 23.941-29.391 38.781l-5.5391 11.633c-3.3047-0.17578-6.6914-0.27734-10.125-0.27734-3.2969 0-6.543 0.089844-9.7109 0.25391l-5.5312-11.609c-3.8086-7.9883-8.5-15.566-13.953-22.535-1.1719-1.4961-3.3359-1.7617-4.832-0.58984s-1.7617 3.3359-0.58984 4.832c5.1367 6.5625 9.5664 13.719 13.156 21.254l4.3789 9.1797c-7.7344 0.73828-14.84 1.9766-20.812 3.6719-4.7539 1.3477-8.5508 2.9141-11.414 4.6641l-21.797-6.9258c-24.809-7.8828-51.297-8.9648-76.469-3.5312-0.12891 0.011719-0.25391 0-0.38281 0.03125-0.26563 0.050781-0.52344 0.12891-0.75781 0.22656-12.82 2.875-25.289 7.4375-37.02 13.668-2.3906-4.6211-3.6211-9.3047-3.6211-13.988zm39.457 7.6484c6.2891 19.414 36.438 35.906 82.055 44.574 0.21484 0.039063 0.43359 0.058594 0.64844 0.058594 1.625 0 3.0703-1.1523 3.375-2.8047 0.35547-1.8711-0.875-3.6719-2.7461-4.0234-42.016-7.9805-70.738-22.828-76.594-39.293 23.113-4.4766 47.262-3.2266 69.941 3.9844l18.363 5.8359c-0.58203 1.1602-0.88672 2.3711-0.88672 3.6523 0 5.7969 5.9922 10.441 17.809 13.785 3.375 0.95312 7.1328 1.7695 11.148 2.4297-13.48 8.1562-24.402 20.043-31.391 34.234-28.723-3.6523-55.027-10.008-76.91-18.754-22.199-8.8984-38.309-19.82-46.969-31.508 10.227-5.3828 21.039-9.457 32.156-12.172z"/>
  <path d="m548.45 359c-0.78906-1.7305-2.832-2.5-4.5664-1.7031l-23.312 10.629c-1.7305 0.78906-2.4883 2.832-1.7031 4.5664 0.58203 1.2695 1.832 2.0156 3.1406 2.0156 0.48047 0 0.96484-0.097657 1.4258-0.31641l23.312-10.629c1.7344-0.78125 2.4883-2.8281 1.7031-4.5625z"/>
  <path d="m519.69 445.93c-1.6836-0.88672-3.7695-0.25391-4.6562 1.4258-0.89453 1.6836-0.25391 3.7695 1.4258 4.6562l22.633 12.004c0.51172 0.27734 1.0625 0.40234 1.6133 0.40234 1.2305 0 2.4297-0.66797 3.0391-1.832 0.89453-1.6836 0.25391-3.7695-1.4258-4.6562z"/>
  <path d="m255.11 462.36c0.5625 0 1.1211-0.13672 1.6445-0.42188l22.504-12.242c1.6719-0.90625 2.293-3 1.3789-4.6758-0.90625-1.6719-3-2.2812-4.6758-1.3789l-22.504 12.242c-1.6719 0.90625-2.293 3-1.3789 4.6758 0.62891 1.1523 1.8086 1.8008 3.0312 1.8008z"/>
  <path d="m276.04 372.11c1.3203 0 2.5781-0.76562 3.1484-2.0469 0.76562-1.7422-0.011718-3.7695-1.75-4.5469l-23.418-10.383c-1.7422-0.77734-3.7695 0.011719-4.5469 1.75-0.76562 1.7422 0.011719 3.7695 1.75 4.5469l23.418 10.383c0.45312 0.20703 0.92578 0.29688 1.3984 0.29688z"/>
 </g>
</svg>